<?xml version="1.0" encoding="UTF-8" standalone="no"?>
<svg xmlns:dc="http://purl.org/dc/elements/1.1/" xmlns:cc="http://creativecommons.org/ns#" xmlns:rdf="http://www.w3.org/1999/02/22-rdf-syntax-ns#" xmlns:svg="http://www.w3.org/2000/svg" xmlns="http://www.w3.org/2000/svg" viewBox="0 0 985.33331 984" height="984" width="985.33331" xml:space="preserve" id="svg2" version="1.1"><metadata id="metadata8"><rdf:RDF><cc:Work rdf:about=""><dc:format>image/svg+xml</dc:format><dc:type rdf:resource="http://purl.org/dc/dcmitype/StillImage"/><dc:title/></cc:Work></rdf:RDF></metadata><defs id="defs6"><clipPath id="clipPath20" clipPathUnits="userSpaceOnUse"><path id="path18" d="M 0,7380 H 4470 V 6570 H 800 V 5210 H 0 Z"/></clipPath><linearGradient id="linearGradient26" spreadMethod="pad" gradientTransform="matrix(4470,0,0,-4470,0,6295)" gradientUnits="userSpaceOnUse" y2="0" x2="1" y1="0" x1="0"><stop id="stop22" offset="0" style="stop-opacity:1;stop-color:#e3c60d"/><stop id="stop24" offset="1" style="stop-opacity:1;stop-color:#edac0f"/></linearGradient><clipPath id="clipPath36" clipPathUnits="userSpaceOnUse"><path id="path34" d="M 5220,7380 V 6570 H 6590 V 2910 h 800 v 4470 z"/></clipPath><linearGradient id="linearGradient42" spreadMethod="pad" gradientTransform="matrix(2170,0,0,-2170,5220,5145)" gradientUnits="userSpaceOnUse" y2="0" x2="1" y1="0" x1="0"><stop id="stop38" offset="0" style="stop-opacity:1;stop-color:#edac0f"/><stop id="stop40" offset="1" style="stop-opacity:1;stop-color:#f68c1c"/></linearGradient><clipPath id="clipPath52" clipPathUnits="userSpaceOnUse"><path id="path50" d="M 0,4460 H 800 V 800 H 2170 V 0 H 0 Z"/></clipPath><linearGradient id="linearGradient58" spreadMethod="pad" gradientTransform="matrix(2170,0,0,-2170,0,2230)" gradientUnits="userSpaceOnUse" y2="0" x2="1" y1="0" x1="0"><stop id="stop54" offset="0" style="stop-opacity:1;stop-color:#e3c60d"/><stop id="stop56" offset="1" style="stop-opacity:1;stop-color:#efa60f"/></linearGradient><clipPath id="clipPath68" clipPathUnits="userSpaceOnUse"><path id="path66" d="m 2930,0 v 800 h 3650 v 1370 h 810 V 0 Z"/></clipPath><linearGradient id="linearGradient74" spreadMethod="pad" gradientTransform="matrix(4460,0,0,-4460,2930,1085)" gradientUnits="userSpaceOnUse" y2="0" x2="1" y1="0" x1="0"><stop id="stop70" offset="0" style="stop-opacity:1;stop-color:#edac0f"/><stop id="stop72" offset="1" style="stop-opacity:1;stop-color:#f68c1c"/></linearGradient><clipPath id="clipPath84" clipPathUnits="userSpaceOnUse"><path id="path82" d="M 1580,5840 H 2630 L 3690,2590 4740,5840 H 5790 L 4180,1550 h -990 z"/></clipPath><linearGradient id="linearGradient90" spreadMethod="pad" gradientTransform="matrix(4210,0,0,-4210,1580,3695)" gradientUnits="userSpaceOnUse" y2="0" x2="1" y1="0" x1="0"><stop id="stop86" offset="0" style="stop-opacity:1;stop-color:#e3c60d"/><stop id="stop88" offset="1" style="stop-opacity:1;stop-color:#f0a610"/></linearGradient></defs><g transform="matrix(1.3333333,0,0,-1.3333333,0,984)" id="g10"><g transform="scale(0.1)" id="g12"><g id="g14"><g clip-path="url(#clipPath20)" id="g16"><path id="path28" style="fill:url(#linearGradient26);fill-opacity:1;fill-rule:nonzero;stroke:none" d="M 0,7380 H 4470 V 6570 H 800 V 5210 H 0 v 2170"/></g></g><g id="g30"><g clip-path="url(#clipPath36)" id="g32"><path id="path44" style="fill:url(#linearGradient42);fill-opacity:1;fill-rule:nonzero;stroke:none" d="M 5220,7380 V 6570 H 6590 V 2910 h 800 V 7380 H 5220"/></g></g><g id="g46"><g clip-path="url(#clipPath52)" id="g48"><path id="path60" style="fill:url(#linearGradient58);fill-opacity:1;fill-rule:nonzero;stroke:none" d="M 0,4460 H 800 V 800 H 2170 V 0 H 0 v 4460"/></g></g><g id="g62"><g clip-path="url(#clipPath68)" id="g64"><path id="path76" style="fill:url(#linearGradient74);fill-opacity:1;fill-rule:nonzero;stroke:none" d="m 2930,0 v 800 h 3650 v 1370 h 810 V 0 H 2930"/></g></g><g id="g78"><g clip-path="url(#clipPath84)" id="g80"><path id="path92" style="fill:url(#linearGradient90);fill-opacity:1;fill-rule:nonzero;stroke:none" d="M 1580,5840 H 2630 L 3690,2590 4740,5840 H 5790 L 4180,1550 H 3190 L 1580,5840"/></g></g></g></g></svg>